#!OML:ASF I:\golf\golf\golf 2\Subject 1\2002-09-07\Subject1.ASF
:FULLY-SPECIFIED
:DEGREES
154
root 1.35288 18.1147 -7.03516 10.6334 4.1567 -5.25423
lowerback 0.743009 1.66024 -1.7317
upperback 4.45174 2.13343 3.53897
thorax 3.98145 0.932473 4.696
lowerneck -15.5708 -0.643807 0.0624272
upperneck 41.1949 2.07422 -6.73532
head 18.1069 -0.0333211 -2.75411
rclavicle -1.80894e-014 7.15625e-015
rhumerus -22.7601 3.35002 -82.4763
rradius 31.0278
rwrist -8.67153
rhand -28.1238 15.8257
rfingers 7.12502
rthumb -1.50546 -14.1488
lclavicle -1.80894e-014 7.15625e-015
lhumerus -26.5954 2.25518 84.7401
lradius 29.3354
lwrist 7.25275
lhand -12.4289 35.7775
lfingers 7.12502
lthumb 13.6436 65.3103
rfemur -31.6186 -6.5242 22.2996
rtibia 35.8583
rfoot -9.96571 -8.61574
rtoes -2.92787
lfemur -14.3727 2.88334 -18.6176
ltibia 24.2441
lfoot -16.8265 -4.7891
ltoes 1.2878
155
root 1.34545 18.1204 -7.02573 10.7779 4.45835 -5.33053
lowerback 0.767818 1.68139 -1.63238
upperback 4.62259 2.15392 3.64144
thorax 4.14411 0.938763 4.75214
lowerneck -15.6808 -0.756565 -0.121925
upperneck 41.129 1.93705 -6.66146
head 18.0865 -0.106156 -2.70853
rclavicle 2.01766e-014 9.14409e-015
rhumerus -22.3742 3.72764 -82.3873
rradius 31.2976
rwrist -9.00638
rhand -28.2741 15.7921
rfingers 7.12502
rthumb -1.65063 -14.1813
lclavicle 2.01766e-014 9.14409e-015
lhumerus -26.4078 2.0834 84.9541
lradius 29.724
lwrist 7.36309
lhand -12.351 35.9104
lfingers 7.12502
lthumb 13.7187 65.4382
rfemur -32.0264 -6.52085 22.5023
rtibia 35.3105
rfoot -9.8116 -8.61358
rtoes -2.26998
lfemur -14.4802 2.83968 -18.4717
ltibia 24.0792
lfoot -16.7745 -5.01191
ltoes 1.45147
156
root 1.33829 18.1275 -7.0162 10.9773 4.831 -5.38987
lowerback 0.985943 1.68122 -1.51631
upperback 4.62316 2.14987 3.72033
thorax 4.02262 0.942058 4.76069
lowerneck -15.6659 -0.837325 -0.183504
upperneck 41.0608 1.83143 -6.65602
head 18.0348 -0.15465 -2.70958
rclavicle -5.36719e-015 8.34896e-015
rhumerus -22.0743 4.46731 -82.4081
rradius 31.3224
rwrist -9.84699
rhand -28.487 16.008
rfingers 7.12502
rthumb -1.85629 -13.9637
lclavicle -5.36719e-015 8.34896e-015
lhumerus -26.452 1.8124 85.1362
lradius 30.1575
lwrist 7.58741
lhand -12.377 35.8886
lfingers 7.12502
lthumb 13.6937 65.4181
rfemur -32.4976 -6.60612 22.7036
rtibia 34.7374
rfoot -9.51244 -8.55584
rtoes -2.57708
lfemur -14.6468 2.76234 -18.3351
ltibia 23.9101
lfoot -16.7362 -5.3294
ltoes 2.01381
157
root 1.32924 18.1334 -7.00762 11.1738 5.20952 -5.39484
lowerback 1.27373 1.69138 -1.46421
upperback 4.62555 2.16183 3.78686
thorax 3.86056 0.951964 4.79024
lowerneck -15.7547 -0.914115 -0.20992
upperneck 41.0441 1.73316 -6.66707
head 18.0428 -0.198137 -2.72839
rclavicle -1.27222e-014 1.98785e-015
rhumerus -21.6444 5.23357 -82.4284
rradius 30.9947
rwrist -10.7095
rhand -28.9269 16.8761
rfingers 7.12502
rthumb -2.28113 -13.0914
lclavicle -1.27222e-014 1.98785e-015
lhumerus -26.6045 1.21286 85.4139
lradius 30.8419
lwrist 8.10669
lhand -12.4902 35.9904
lfingers 7.12502
lthumb 13.5846 65.5272
rfemur -32.9522 -6.74377 22.8775
rtibia 34.1576
rfoot -9.1847 -8.4671
rtoes -3.45214
lfemur -14.7923 2.62086 -18.2456
ltibia 23.704
lfoot -16.6563 -5.58522
ltoes 2.57885
158
root 1.31933 18.1382 -6.99621 11.3254 5.57405 -5.30776
lowerback 1.56724 1.74106 -1.45392
upperback 4.5648 2.23137 3.76092
thorax 3.62582 0.993143 4.74482
lowerneck -15.5381 -1.0275 -0.105984
upperneck 41.0337 1.5023 -6.62508
head 17.9606 -0.262641 -2.76499
rclavicle -3.77691e-015 -3.1408e-014
rhumerus -21.6706 5.43491 -82.4703
rradius 31.1045
rwrist -10.9422
rhand -29.4002 17.3948
rfingers 7.12502
rthumb -2.73823 -12.5674
lclavicle -3.77691e-015 -3.1408e-014
lhumerus -27.0036 0.252149 85.651
lradius 31.6338
lwrist 8.83461
lhand -12.7316 36.0051
lfingers 7.12502
lthumb 13.352 65.5573
rfemur -33.3292 -6.78018 22.9076
rtibia 33.5804
rfoot -8.99726 -8.40527
rtoes -3.83695
lfemur -14.8484 2.39877 -18.248
ltibia 23.483
lfoot -16.5546 -5.7499
ltoes 3.08814
159
root 1.31384 18.1427 -6.98845 11.6055 5.84671 -5.2045
lowerback 1.71829 1.8491 -1.35186
upperback 4.39949 2.38194 3.64642
thorax 3.3621 1.08112 4.55699
lowerneck -14.9489 -1.19688 0.0814921
upperneck 40.946 1.1295 -6.54651
head 17.7222 -0.361835 -2.81266
rclavicle -1.2921e-014 -7.95139e-015
rhumerus -22.0407 5.11981 -82.5232
rradius 31.6018
rwrist -10.6605
rhand -29.7787 17.3811
rfingers 7.12502
rthumb -3.1037 -12.5761
lclavicle -1.2921e-014 -7.95139e-015
lhumerus -27.3093 -0.44844 85.7118
lradius 31.9756
lwrist 9.16189
lhand -12.8618 35.8018
lfingers 7.12502
lthumb 13.2264 65.3622
rfemur -33.88 -6.71337 22.8772
rtibia 32.9936
rfoot -8.6404 -8.27876
rtoes -4.32657
lfemur -15.0419 2.19139 -18.3107
ltibia 23.2492
lfoot -16.4372 -5.82779
ltoes 3.26698
160
root 1.31007 18.1474 -6.98362 11.9912 6.08074 -5.15848
lowerback 1.81509 1.88374 -1.24791
upperback 4.32875 2.42961 3.64651
thorax 3.23354 1.11152 4.49233
lowerneck -14.7568 -1.30884 0.00829738
upperneck 40.8703 0.952977 -6.48589
head 17.6149 -0.431721 -2.79382
rclavicle -1.47101e-014 -1.19271e-015
rhumerus -21.9451 5.16653 -82.465
rradius 31.9034
rwrist -10.4112
rhand -29.932 17.2781
rfingers 7.12502
rthumb -3.25182 -12.6769
lclavicle -1.47101e-014 -1.19271e-015
lhumerus -27.413 -0.746551 85.8398
lradius 32.3388
lwrist 9.31214
lhand -12.735 35.7032
lfingers 7.12502
lthumb 13.3486 65.2556
rfemur -34.5632 -6.7221 22.9524
rtibia 32.3782
rfoot -8.49067 -8.01236
rtoes -3.17316
lfemur -15.3739 2.09084 -18.3333
ltibia 22.9902
lfoot -16.3029 -5.9902
ltoes 3.40301
161
root 1.3004 18.1557 -6.9713 12.252 6.44796 -5.09722
lowerback 1.97573 1.81796 -1.33114
upperback 4.42457 2.33773 3.79588
thorax 3.24236 1.05915 4.69212
lowerneck -14.9802 -1.35673 -0.234449
upperneck 40.8271 0.957988 -6.46153
head 17.652 -0.465023 -2.73917
rclavicle 5.36719e-015 3.81667e-014
rhumerus -21.5182 5.61679 -82.2958
rradius 32.1424
rwrist -10.2853
rhand -29.9413 17.1816
rfingers 7.12502
rthumb -3.26081 -12.7733
lclavicle 5.36719e-015 3.81667e-014
lhumerus -27.5592 -1.09584 86.1749
lradius 33.1383
lwrist 9.70783
lhand -12.6103 35.7994
lfingers 7.12502
lthumb 13.4688 65.3439
rfemur -35.0296 -6.82027 23.0396
rtibia 31.7128
rfoot -8.65974 -7.79586
rtoes -0.983714
lfemur -15.5573 1.96082 -18.3174
ltibia 22.7285
lfoot -16.1589 -6.22515
ltoes 3.41918
162
root 1.28824 18.1638 -6.95698 12.5172 6.89227 -4.94639
lowerback 2.1819 1.74951 -1.48843
upperback 4.46332 2.24475 3.90174
thorax 3.16605 1.00688 4.88552
lowerneck -15.0527 -1.39964 -0.30646
upperneck 40.7722 0.933833 -6.49832
head 17.6395 -0.489671 -2.74535
rclavicle 2.0276e-014 1.03368e-014
rhumerus -21.2671 6.08915 -82.1674
rradius 32.4926
rwrist -10.3094
rhand -30.1179 17.0956
rfingers 7.12502
rthumb -3.4313 -12.8565
lclavicle 2.0276e-014 1.03368e-014
lhumerus -27.7342 -1.43111 86.4774
lradius 33.8611
lwrist 10.1175
lhand -12.6976 35.9378
lfingers 7.12502
lthumb 13.3847 65.4879
rfemur -35.4398 -6.90751 23.0273
rtibia 30.9821
rfoot -8.4076 -7.74765
rtoes -2.38198
lfemur -15.7345 1.80629 -18.3741
ltibia 22.4732
lfoot -16.0332 -6.47961
ltoes 3.19774
163
root 1.27672 18.1704 -6.94374 12.8411 7.28916 -4.85675
lowerback 2.47018 1.73169 -1.35978
upperback 4.39216 2.22501 3.85677
thorax 2.9374 1.00708 4.75271
lowerneck -14.9528 -1.45833 -0.209819
upperneck 40.6848 0.809817 -6.50676
head 17.5535 -0.522717 -2.78141
rclavicle -6.36111e-015 -2.22639e-014
rhumerus -21.035 6.23258 -82.2174
rradius 32.5268
rwrist -10.1089
rhand -30.5558 17.2899
rfingers 7.12502
rthumb -3.85418 -12.655
lclavicle -6.36111e-015 -2.22639e-014
lhumerus -27.8905 -1.89301 86.6002
lradius 34.392
lwrist 10.5035
lhand -12.9357 35.9669
lfingers 7.12502
lthumb 13.1552 65.5319
rfemur -35.892 -6.87345 23.0448
rtibia 30.1941
rfoot -7.97718 -7.6266
rtoes -2.72601
lfemur -15.9632 1.70498 -18.3741
ltibia 22.1919
lfoot -15.9546 -6.80552
ltoes 3.83288
